<svg width="640" height="480" xmlns="http://www.w3.org/2000/svg" xmlns:svg="http://www.w3.org/2000/svg" xmlns:xlink="http://www.w3.org/1999/xlink">
 <!-- Created with SVG-edit - http://svg-edit.googlecode.com/ -->
 <title>TakeSnapShotsAndSendMail</title>
 <defs>
  <symbol viewBox="0 0 52 52" id="svg_2" xmlns:xlink="http://www.w3.org/1999/xlink" xmlns="http://www.w3.org/2000/svg">
   <g>
    <g>
     <path d="m48.63632,18.67999l0,18l-7.18677,0c-0.41333,-1.15967 -1.51001,-2 -2.81585,-2c-0.31781,0 -0.61872,0.06348 -0.9068,0.15613l-3.62116,-6.18433l3.02961,-1.53283l-1.75812,-3.47455l7.58648,-3.96442l-8.04003,-16.35998l-33.56,17.53998l9.88,4.53997l4.23999,8.64002l11.07318,-5.78644l1.63904,3.38837l4.12207,-2.08557l3.80408,6.49676c-0.30615,0.46997 -0.48834,1.02734 -0.48834,1.62689c0,1.65003 1.34997,3 3,3c1.30584,0 2.40252,-0.84033 2.81585,-2l7.18677,0l0,10l2,0l0,-30l-2,0z"/>
    </g>
    <g>
     <polygon points="5.1305237,24.7919312 9.5201111,33.7268677 12.3711243,32.2370605 9.7618103,26.9197388   " fill="#3A92CC"/>
    </g>
   </g>
  </symbol>
  <symbol viewBox="0 0 512 512" id="svg_13" xmlns:xlink="http://www.w3.org/1999/xlink" xmlns="http://www.w3.org/2000/svg">
   <g>
    <g>
     <path id="svg_12" d="m346.7,359.8c4.7,-6.2 7.5,-14 7.5,-22.4l0,-162.9c0,-1.6 -0.1,-3.1 -0.3,-4.6l-105.3,75.7l98.1,114.2z"/>
     <path id="svg_11" d="m213.3,258.9l137.9,-99.1c-5.7,-13.3 -19,-22.7 -34.4,-22.7l-273.4,0c-10.4,0 -19.7,4.2 -26.5,11l112.7,92.8c0,0 0,0 0,0s0,0 0,0l19.4,15.9c18.4,15.2 44.9,16.1 64.3,2.1z"/>
     <path id="svg_10" d="m240.5,251.5l-21.5,15.4c-10.9,7.9 -23.8,11.8 -36.6,11.8c-14.2,0 -28.3,-4.8 -39.8,-14.3l-15.6,-12.9l-101.6,118.7c5.4,3 11.5,4.7 18.1,4.7l273.3,0c8.7,0 16.7,-3 23.1,-8l-99.4,-115.4z"/>
     <path id="svg_9" d="m17.4,364.4l101.9,-119.1l-108.3,-89.3c-3.1,5.5 -5,11.8 -5,18.6l0,162.9c0,10.5 4.4,20.1 11.4,26.9z"/>
    </g>
    <g>
     <path id="svg_8" d="m499,278.8l-135.6,0l0,-13.9l135.6,0c3.8,0 7,3.1 7,7l0,0c0,3.8 -3.1,6.9 -7,6.9z"/>
     <path id="svg_7" d="m481.1,307.9l-117.7,0l0,-13.9l117.7,0c3.8,0 7,3.1 7,7l0,0c-0.1,3.8 -3.2,6.9 -7,6.9z"/>
     <path id="svg_6" d="m462.5,337l-99,0l0,-14l99,0c3.8,0 7,3.1 7,7l0,0c-0.1,3.8 -3.2,7 -7,7z"/>
    </g>
   </g>
  </symbol>
 </defs>
 <g>
  <title>Layer 1</title>
  <use x="39.174979" y="-15.551767" transform="matrix(1.0811712581439783,0,0,1.0299813822097432,-84.75223109459797,8.141445092270004) " xlink:href="#svg_2" id="svg_3"/>
  <g id="svg_4"/>
  <use x="5064.593607" y="8233.102262" transform="matrix(0.4313292813421637,0,0,0.4014888570285715,-2194.075471936476,-2994.4213435733855) " xlink:href="#svg_13" id="svg_14"/>
  <g id="svg_15"/>
 </g>
</svg>